<?xml version="1.0" encoding="utf-8"?>
<!-- Generator: Adobe Illustrator 16.0.0, SVG Export Plug-In . SVG Version: 6.00 Build 0)  -->
<!DOCTYPE svg PUBLIC "-//W3C//DTD SVG 1.1//EN" "http://www.w3.org/Graphics/SVG/1.1/DTD/svg11.dtd">
<svg version="1.1" id="Layer_1" xmlns="http://www.w3.org/2000/svg" xmlns:xlink="http://www.w3.org/1999/xlink" x="0px" y="0px"
	 width="177px" height="177px" viewBox="0 0 177 177" enable-background="new 0 0 177 177" xml:space="preserve">
<circle fill="none" stroke="#F66633" stroke-width="8" stroke-miterlimit="10" cx="89.833" cy="87.333" r="69.833"/>
<rect x="85.167" y="7.333" fill="#F66633" width="9.333" height="21"/>
<rect x="85.167" y="146" fill="#F66633" width="9.333" height="21"/>
<rect x="148.666" y="82.167" fill="#F66633" width="21" height="9.333"/>
<rect x="9" y="82.167" fill="#F66633" width="21" height="9.333"/>
<g>
	<path fill="#F66633" d="M101.597,115.112H41.289c0.643-5.755,2.466-16.181,7.317-17.453c1.748-0.655,3.291-1.135,4.657-1.498
		c6.634-1.765,9.076-0.789,10.539-3.978c1.762-3.845,0.427-3.55-0.854-6.667c-0.014-0.033-0.025-0.065-0.036-0.096
		c-0.113-0.128-0.22-0.261-0.323-0.4c-2.347-3.016-4.352-7.711-4.158-13.141c0,0,0.163-0.928,0.018-2.272
		c-0.038-0.366-0.101-0.763-0.195-1.181c-0.317-1.404-0.759-8.529,2.492-10.754c1.482-1.014,6.033-3.7,10.671-3.461
		c5.546,0.285,11.217,3.709,11.927,4.978c1.918,3.428,1.118,8.826,1.033,9.33c-0.334,1.972-0.569,4.676-0.759,7.602
		c-0.164,2.517-1.249,5.656-2.819,7.88c-0.26,0.46-0.541,0.925-0.861,1.375c-0.015,0.045-0.032,0.092-0.053,0.142
		c-1.28,3.117-2.615,2.822-0.853,6.667c1.104,2.412,2.815,2.484,6.465,3.151c2.168,0.396,5.021,1.002,8.841,2.435
		C99.344,99.829,101.035,109.61,101.597,115.112z"/>
	<path fill-rule="evenodd" clip-rule="evenodd" fill="#F66633" d="M79.515,115.112h60.308c-0.643-5.755-2.466-16.181-7.317-17.453
		c-1.748-0.655-3.291-1.135-4.657-1.498c-6.634-1.765-9.079-0.789-10.539-3.978c-1.762-3.845-0.427-3.55,0.854-6.667
		c0.014-0.033,0.025-0.065,0.037-0.096c0.112-0.128,0.219-0.261,0.322-0.4c2.347-3.016,4.352-7.711,4.159-13.141
		c0,0-0.164-0.928-0.019-2.272c0.039-0.366,0.101-0.763,0.195-1.181c0.317-1.404,0.759-8.529-2.492-10.754
		c-1.482-1.014-6.033-3.7-10.671-3.461c-5.546,0.285-11.217,3.709-11.927,4.978c-1.918,3.428-1.118,8.826-1.033,9.33
		c0.334,1.972,0.569,4.676,0.76,7.602c0.163,2.517,1.248,5.656,2.818,7.88c0.26,0.46,0.541,0.925,0.861,1.375
		c0.015,0.045,0.032,0.092,0.052,0.142c1.281,3.117,2.616,2.822,0.854,6.667c-1.105,2.412-2.816,2.484-6.466,3.151
		c-2.168,0.396-5.021,1.002-8.84,2.435C81.768,99.829,80.076,109.61,79.515,115.112z"/>
	<path fill-rule="evenodd" clip-rule="evenodd" fill="#FFFFFF" d="M57.112,124.321l0.362-3.255
		c0.329-2.947,0.978-7.247,2.208-10.996c0.71-2.166,1.555-3.964,2.512-5.347c1.291-1.865,2.84-3.067,4.603-3.575
		c1.65-0.615,3.225-1.119,4.811-1.541c2.256-0.601,4.03-0.898,5.456-1.137c2.826-0.474,2.859-0.546,3.173-1.229
		c0.42-0.917,0.536-1.348,0.569-1.514c-0.064-0.125-0.186-0.329-0.287-0.5c-0.285-0.482-0.665-1.124-1.05-2.004
		c-0.038-0.05-0.076-0.1-0.114-0.149c-3.214-4.143-4.946-9.615-4.755-15.019l0.008-0.238l0.032-0.151
		c0.013-0.106,0.077-0.678-0.007-1.467c-0.03-0.286-0.078-0.571-0.141-0.845c-0.223-0.991-0.447-3.419-0.145-6.051
		c0.425-3.702,1.717-6.316,3.842-7.77c1.365-0.935,6.25-3.987,11.737-3.987c0.247,0,0.495,0.006,0.738,0.019
		c3.761,0.192,7.183,1.587,8.888,2.401c1.614,0.77,4.469,2.324,5.445,4.072c2.437,4.355,1.481,10.555,1.364,11.248
		c-0.274,1.625-0.506,3.946-0.725,7.305c-0.198,3.053-1.474,6.667-3.26,9.253c-0.251,0.439-0.494,0.834-0.74,1.198
		c-0.411,0.975-0.823,1.671-1.128,2.186c-0.101,0.171-0.222,0.375-0.286,0.5c0.031,0.167,0.147,0.597,0.569,1.515
		c0.312,0.682,0.361,0.788,3.332,1.311c0.316,0.056,0.646,0.115,0.996,0.179c2.393,0.437,5.374,1.084,9.342,2.573l0.045,0.016
		l0.042,0.019c1.716,0.706,3.223,2.01,4.481,3.876c0.955,1.417,1.79,3.199,2.481,5.295c1.217,3.684,1.812,7.789,2.096,10.584
		l0.329,3.227H57.112z"/>
	<path fill-rule="evenodd" clip-rule="evenodd" fill="#F66633" d="M120.694,121.391H60.386c0.643-5.756,2.466-16.182,7.317-17.453
		c1.748-0.656,3.291-1.136,4.657-1.499c6.634-1.766,9.079-0.79,10.539-3.978c1.762-3.845,0.427-3.55-0.854-6.666
		c-0.014-0.033-0.025-0.066-0.036-0.097c-0.112-0.128-0.22-0.262-0.323-0.401c-2.346-3.016-4.351-7.711-4.158-13.141
		c0,0,0.162-0.928,0.02-2.271c-0.04-0.367-0.102-0.764-0.196-1.181c-0.318-1.406-0.76-8.53,2.492-10.754
		c1.48-1.014,6.031-3.7,10.671-3.462c5.545,0.285,11.218,3.709,11.926,4.978c1.919,3.429,1.118,8.827,1.032,9.33
		c-0.333,1.972-0.567,4.676-0.757,7.602c-0.165,2.516-1.25,5.656-2.819,7.88c-0.26,0.46-0.543,0.925-0.861,1.374
		c-0.015,0.046-0.033,0.093-0.053,0.143c-1.28,3.116-2.614,2.821-0.854,6.666c1.104,2.411,2.815,2.484,6.464,3.151
		c2.169,0.396,5.022,1.001,8.842,2.434C118.44,106.107,120.133,115.888,120.694,121.391z"/>
</g>
</svg>
